<?xml version="1.0" standalone="no"?>
<!DOCTYPE svg PUBLIC "-//W3C//DTD SVG 20010904//EN"
 "http://www.w3.org/TR/2001/REC-SVG-20010904/DTD/svg10.dtd">
<svg version="1.0" xmlns="http://www.w3.org/2000/svg"
 width="640.000000pt" height="400.000000pt" viewBox="0 0 640.000000 400.000000"
 preserveAspectRatio="xMidYMid meet">
<metadata>
Created by potrace 1.15, written by Peter Selinger 2001-2017
</metadata>
<g transform="translate(0.000000,400.000000) scale(0.100000,-0.100000)"
fill="#000000" stroke="none">
<path d="M3578 3149 c-16 -9 -18 -31 -18 -229 0 -120 -4 -221 -8 -224 -5 -3
-33 2 -63 11 -94 27 -291 53 -389 51 -129 -2 -363 -39 -418 -67 -9 -5 -47 -23
-84 -41 -159 -78 -269 -205 -314 -365 -21 -74 -29 -197 -16 -245 6 -19 18 -62
27 -95 45 -155 167 -270 380 -356 55 -22 294 -59 380 -59 102 0 351 42 371 63
4 4 15 7 23 7 9 0 33 9 54 20 51 28 67 26 67 -8 0 -15 5 -33 12 -40 17 -17
529 -17 546 0 9 9 12 198 12 790 0 758 0 778 -19 788 -26 13 -520 13 -543 -1z"/>
<path d="M4336 3144 c-14 -14 -16 -99 -16 -784 0 -662 2 -771 15 -783 12 -12
60 -15 273 -16 l258 -2 22 25 c21 25 29 26 77 6 40 -17 162 -39 279 -51 169
-18 340 2 539 61 69 20 172 79 229 130 193 172 246 447 132 685 -51 106 -145
196 -252 245 -26 12 -55 26 -64 31 -57 30 -256 61 -403 63 -178 1 -277 -15
-430 -73 -38 -14 -74 -26 -80 -26 -6 0 -8 86 -6 236 3 209 1 238 -14 252 -14
15 -47 17 -280 17 -226 0 -266 -2 -279 -16z"/>
<path d="M850 2740 c-166 -23 -204 -32 -305 -70 -55 -20 -165 -77 -200 -104
-119 -89 -181 -188 -210 -335 -16 -79 -16 -90 -1 -169 24 -121 57 -184 146
-272 140 -141 319 -207 670 -250 196 -23 505 3 705 60 138 39 270 118 335 201
40 51 66 111 55 129 -4 6 -102 10 -271 10 l-265 0 -21 -35 c-49 -85 -160 -125
-343 -125 -174 0 -267 31 -346 113 -38 39 -72 108 -67 137 l3 21 652 0 c403
-1 661 3 677 9 26 9 26 11 26 108 0 54 -4 102 -8 108 -5 5 -17 32 -27 59 -33
93 -82 157 -180 232 -103 78 -297 149 -460 168 -33 3 -73 9 -90 11 -91 15
-347 12 -475 -6z"/>
</g>
</svg>
